<svg aria-hidden="true" style="width:0;height:0;position:absolute;overflow:hidden" xmlns="http://www.w3.org/2000/svg"><defs><symbol id="icon-film" viewBox="0 0 31 32"><path fill="none" stroke="#fff" style="stroke:var(--color1,#fff)" stroke-linejoin="round" stroke-linecap="round" stroke-width="2.064" d="M23.56 2.066H7.407a2.251 2.251 0 0 0-2.251 2.251V20.47a2.251 2.251 0 0 0 2.251 2.251v0H23.56a2.251 2.251 0 0 0 2.251-2.251v0V4.317a2.251 2.251 0 0 0-2.251-2.251v0zm-13.24 0v20.656M20.648 2.066v20.656M5.156 12.393h20.656M5.156 7.229h5.164M5.156 17.557h5.164m10.328 0h5.164M20.648 7.229h5.164"/></symbol><symbol id="icon-search" viewBox="0 0 32 32"><path fill="none" stroke="#fff" style="stroke:var(--color1,#fff)" stroke-linejoin="round" stroke-linecap="round" stroke-width="2.667" d="M14.667 25.333c5.891 0 10.667-4.776 10.667-10.667S20.558 3.999 14.667 3.999v0C8.776 3.999 4 8.775 4 14.666s4.776 10.667 10.667 10.667v0zM28 28l-5.8-5.8"/></symbol></defs></svg>