<svg aria-hidden="true" style="width:0;height:0;position:absolute;overflow:hidden" xmlns="http://www.w3.org/2000/svg"><defs><symbol id="icon-close-btn" viewBox="0 0 30 30" fill="none" xmlns="http://www.w3.org/2000/svg"><path d="m8 8 14 14M8 22 22 8" stroke="#000" stroke-width="2"/></symbol><symbol id="icon-up-arrow" viewBox="0 0 32 32"><path fill="#fff" style="fill:var(--color1,#fff)" d="M16 31.5C7.453 31.5.5 24.547.5 16S7.453.5 16 .5 31.5 7.453 31.5 16 24.547 31.5 16 31.5z"/><path fill="#e8e8e8" style="fill:var(--color2,#e8e8e8)" d="M16 1c8.271 0 15 6.729 15 15s-6.729 15-15 15S1 24.271 1 16 7.729 1 16 1zm0-1C7.163 0 0 7.163 0 16c0 8.836 7.163 16 16 16s16-7.164 16-16c0-8.837-7.163-16-16-16z"/><path d="m9.471 19.149 4.453-4.564V25.6h4.153V14.585l4.452 4.564 2.964-2.907L16 6.51l-9.493 9.732z"/></symbol></defs></svg>