<svg aria-hidden="true" style="position: absolute; width: 0; height: 0; overflow: hidden;" version="1.1" xmlns="http://www.w3.org/2000/svg" xmlns:xlink="http://www.w3.org/1999/xlink">
<defs>
<symbol id="icon-close-btn"viewBox="0 0 30 30" fill="none" xmlns="http://www.w3.org/2000/svg">
<path d="M8 8L22 22" stroke="black" stroke-width="2"></path>
<path d="M8 22L22 8" stroke="black" stroke-width="2"></path>
</symbol>

<symbol id="icon-up-arrow" viewBox="0 0 32 32">
<path fill="#fff" style="fill: var(--color1, #fff)" d="M16 31.5c-8.547 0-15.5-6.953-15.5-15.5s6.953-15.5 15.5-15.5 15.5 6.953 15.5 15.5-6.953 15.5-15.5 15.5z"></path>
<path fill="#e8e8e8" style="fill: var(--color2, #e8e8e8)" d="M16 1c8.271 0 15 6.729 15 15s-6.729 15-15 15-15-6.729-15-15 6.729-15 15-15zM16 0c-8.837 0-16 7.163-16 16 0 8.836 7.163 16 16 16s16-7.164 16-16c0-8.837-7.163-16-16-16v0z"></path>
<path d="M9.471 19.149l4.453-4.564v11.015h4.153v-11.015l4.452 4.564 2.964-2.907-9.493-9.732-9.493 9.732z"></path>
</symbol>
</defs>
</svg>
